<svg width="40" height="50" viewBox="0 0 40 50" fill="none" xmlns="http://www.w3.org/2000/svg">
  <rect width="40" height="50" fill="none"/>
  <path d="M3.5 43V18.5H7.5V43H3.5ZM5.5 14.5C4.8 14.5 4.2 14.2 3.7 13.7C3.2 13.2 3 12.6 3 12C3 11.4 3.2 10.8 3.7 10.3C4.2 9.8 4.8 9.5 5.5 9.5C6.2 9.5 6.8 9.8 7.3 10.3C7.8 10.8 8 11.4 8 12C8 12.6 7.8 13.2 7.3 13.7C6.8 14.2 6.2 14.5 5.5 14.5ZM17 28V43H13V18.5H16.8V22.5H17.2C17.8 21.4 18.6 20.5 19.6 19.8C20.6 19.1 21.9 18.7 23.5 18.7C24.9 18.7 26.2 19 27.3 19.6C28.4 20.2 29.3 21.1 29.9 22.3C30.5 23.5 30.8 25 30.8 26.8V43H26.8V27C26.8 25.2 26.4 23.8 25.5 22.7C24.6 21.6 23.3 21 21.7 21C20.6 21 19.6 21.2 18.8 21.7C18 22.2 17.4 22.9 16.9 23.8C16.4 24.7 17 26 17 28Z" fill="white"/>
</svg>
