<svg width="32" height="40" viewBox="0 0 32 40" fill="none" xmlns="http://www.w3.org/2000/svg">
<rect width="32" height="40" fill="#1E1E1E"/>
<path d="M2.76136 35V15.3636H5.77841V35H2.76136ZM4.29545 12.0909C3.70739 12.0909 3.20028 11.8906 2.77415 11.4901C2.35653 11.0895 2.14773 10.608 2.14773 10.0455C2.14773 9.48295 2.35653 9.00142 2.77415 8.60085C3.20028 8.20028 3.70739 8 4.29545 8C4.88352 8 5.38636 8.20028 5.80398 8.60085C6.23011 9.00142 6.44318 9.48295 6.44318 10.0455C6.44318 10.608 6.23011 11.0895 5.80398 11.4901C5.38636 11.8906 4.88352 12.0909 4.29545 12.0909ZM14.3214 23.1875V35H11.3043V15.3636H14.2191V18.4318H14.4748C14.935 17.4347 15.6339 16.6335 16.5714 16.0284C17.5089 15.4148 18.7191 15.108 20.2021 15.108C21.5316 15.108 22.695 15.3807 23.6921 15.9261C24.6893 16.4631 25.4648 17.2812 26.0188 18.3807C26.5728 19.4716 26.8498 20.8523 26.8498 22.5227V35H23.8327V22.7273C23.8327 21.1847 23.4322 19.983 22.631 19.1222C21.8299 18.2528 20.7305 17.8182 19.3327 17.8182C18.3697 17.8182 17.5089 18.027 16.7504 18.4446C16.0004 18.8622 15.408 19.4716 14.9734 20.2727C14.5387 21.0739 14.3214 22.0455 14.3214 23.1875Z" fill="white"/>
</svg>
